<?xml version="1.0" standalone="no"?>
<!DOCTYPE svg PUBLIC "-//W3C//DTD SVG 20010904//EN"
 "http://www.w3.org/TR/2001/REC-SVG-20010904/DTD/svg10.dtd">
<svg version="1.0" xmlns="http://www.w3.org/2000/svg"
 width="200.000000pt" height="200.000000pt" viewBox="0 0 200.000000 200.000000"
 preserveAspectRatio="xMidYMid meet">
<metadata>
Created by potrace 1.11, written by Peter Selinger 2001-2013
</metadata>
<g transform="translate(0.000000,200.000000) scale(0.100000,-0.100000)"
fill="#000000" stroke="none">
<path d="M205 1565 c-48 -48 -21 -105 50 -105 46 0 75 24 75 63 0 26 -45 67
-75 67 -14 0 -37 -11 -50 -25z"/>
<path d="M435 1440 c-55 -23 -82 -74 -71 -134 8 -40 27 -59 89 -86 76 -34 58
-67 -18 -35 l-35 14 -20 -40 c-12 -22 -18 -44 -15 -49 8 -13 102 -40 139 -40
43 1 112 34 127 61 17 32 15 94 -4 123 -9 13 -41 36 -72 51 -59 27 -66 52 -11
41 66 -14 69 -13 85 27 12 33 12 40 0 48 -41 26 -151 37 -194 19z"/>
<path d="M190 1260 l0 -180 65 0 65 0 0 180 0 180 -65 0 -65 0 0 -180z"/>
<path d="M1670 1069 c0 -58 -1 -60 -22 -54 -13 4 -31 9 -40 11 -25 7 -92 -13
-123 -38 -77 -60 -86 -215 -17 -291 43 -48 141 -64 203 -33 27 14 33 14 46 1
15 -16 50 -19 77 -9 14 5 16 36 16 240 l0 234 -70 0 -70 0 0 -61z m-12 -171
c7 -7 12 -35 12 -63 0 -55 -12 -75 -45 -75 -40 0 -60 25 -60 73 0 24 6 51 14
60 16 20 62 22 79 5z"/>
<path d="M285 1015 c-75 -27 -113 -102 -101 -200 6 -56 27 -89 76 -122 36 -25
97 -30 132 -12 26 14 34 5 20 -26 -10 -22 -18 -25 -64 -25 -29 0 -66 7 -82 15
-35 19 -39 16 -56 -36 -13 -38 -12 -43 4 -55 28 -20 124 -37 174 -30 59 8 112
39 142 83 24 36 25 41 25 222 l0 186 -41 3 c-27 2 -45 -2 -53 -12 -11 -13 -16
-13 -34 -1 -34 22 -97 27 -142 10z m123 -127 c7 -7 12 -28 12 -48 0 -41 -14
-60 -46 -60 -24 0 -54 34 -54 60 0 45 59 77 88 48z"/>
<path d="M731 1020 c-163 -38 -188 -282 -37 -354 42 -20 135 -21 179 -2 116
49 144 220 51 310 -49 48 -117 64 -193 46z m93 -131 c26 -20 36 -69 18 -95
-15 -23 -50 -34 -76 -24 -50 18 -60 76 -21 115 29 30 45 31 79 4z"/>
<path d="M1126 1012 c-33 -11 -59 -30 -80 -55 -27 -34 -31 -48 -34 -110 -2
-61 1 -78 20 -112 68 -117 269 -117 335 0 45 79 23 205 -44 253 -30 21 -95 42
-128 42 -11 -1 -42 -9 -69 -18z m112 -118 c38 -26 29 -108 -14 -125 -70 -26
-120 74 -62 124 25 21 47 22 76 1z"/>
</g>
</svg>
